<svg width="168" height="145" viewBox="0 0 168 145" fill="none" xmlns="http://www.w3.org/2000/svg">
<g clip-path="url(#clip0)">
<path d="M139.129 127.57C142.364 128.188 145.724 127.818 148.96 128.312C153.689 129.177 158.418 129.054 163.147 128.436C163.893 128.312 164.64 128.188 165.262 127.818C166.382 127.076 168 126.581 167.876 124.851C167.751 123.12 166.133 123.12 164.889 122.749C163.147 122.131 161.28 121.76 159.538 121.637C147.84 120.277 137.013 116.445 126.436 111.377C117.476 107.05 110.009 100.746 101.049 95.3069C104.907 94.0708 108.142 92.9583 111.129 91.3513C120.711 86.1594 125.191 78.0009 126.684 67.4936C128.053 57.7281 126.311 48.5806 123.947 39.1859C122.08 32.0162 119.218 24.9702 119.591 17.1825C119.84 12.9796 121.582 9.27113 121.582 5.06824C121.582 3.21402 121.956 0.988953 120.089 0.247265C118.098 -0.618038 116.356 0.741723 114.987 2.2251C112.373 4.94462 110.382 8.1586 108.516 11.3726C102.916 20.5201 100.178 30.5329 99.5556 41.0401C99.3067 45.3666 99.9289 49.5695 100.053 53.896C100.302 63.538 96.6933 71.2021 88.1067 76.023C84.2489 78.2481 79.7689 78.9898 75.7867 80.844C74.9156 81.2149 73.92 81.4621 73.1733 82.0802C71.68 83.1927 70.6844 82.8218 69.1911 81.8329C62.3467 77.5064 55.2533 74.4161 46.9156 77.5064C44.5511 78.3717 42.0622 78.3717 39.8222 76.8883C39.2 76.5175 38.4533 76.1467 37.7067 75.8994C36.5867 75.5286 35.2178 74.7869 34.3467 75.8994C33.4756 77.012 34.5956 78.0009 35.2178 78.9898C38.9511 84.1816 43.9289 87.89 49.1556 91.4749C53.8844 94.8125 56.7467 98.8918 56.8711 104.825C56.9956 111.13 53.0133 115.209 48.7822 118.917C37.9556 128.065 24.7645 130.661 11.0756 131.897C7.84001 132.144 4.97778 133.133 1.86667 133.751C-0.124435 134.122 -0.373322 135.605 0.622223 137.212C1.61778 138.696 3.11111 139.19 4.7289 139.561C9.83112 140.797 15.1822 140.797 20.4089 141.415C24.0178 141.91 27.5022 143.393 31.1111 144.011C40.9422 145.618 50.2756 145.124 59.9822 142.28C71.68 138.943 78.7733 131.402 83.2533 120.648C84.1245 118.423 85.12 117.558 87.7333 118.423C94.4533 120.524 101.547 120.895 108.391 122.255C114.364 123.491 119.84 125.963 125.191 128.683C133.902 133.009 141.742 138.819 150.827 142.404C152.693 143.146 155.307 144.876 156.427 143.146C157.547 141.415 154.311 140.55 152.942 139.314C149.084 135.729 144.107 133.504 140.373 129.672C139.876 129.177 139.004 128.93 139.129 127.57ZM38.08 79.1134C37.5822 78.8662 36.5867 78.7426 37.2089 78.0009C37.7067 77.3828 38.2045 78.1245 38.5778 78.6189C38.8267 78.7426 39.0756 78.8662 39.4489 78.9898C42.56 80.9676 45.92 80.4732 49.1556 79.3606C50.5245 78.8662 51.8933 78.8662 53.2622 78.7426C58.8622 78.4953 63.5911 81.0912 67.9467 83.9344C73.0489 87.272 78.7733 89.2498 84.6222 90.3623C93.5822 92.0929 101.173 96.0486 107.769 101.859C113.867 107.298 120.089 112.242 127.929 114.962C129.547 115.58 129.92 116.445 129.671 118.176C129.298 120.895 127.058 122.873 126.56 125.593C126.436 126.458 125.564 125.84 125.067 125.469C121.458 123.491 117.724 121.76 113.742 120.524C113.244 120.401 112.747 120.03 112.747 119.412C114.489 118.67 116.853 119.659 118.222 117.681C109.76 116.198 101.298 116.692 92.96 116.816C96.0711 114.962 99.5556 114.591 102.791 113.602C97.3156 112.984 91.9644 114.714 85.9911 113.355C88.6044 111.871 91.4667 112.242 93.2089 110.264C87.36 110.882 81.6356 110.759 75.9111 111.748C78.1511 110.388 80.64 110.388 82.88 108.905C78.5244 108.039 74.4178 109.523 70.4356 108.039C73.6711 107.05 76.9067 106.556 79.6444 104.331C75.2889 104.331 71.0578 105.567 66.5778 104.331C70.0622 103.465 73.5467 102.6 77.0311 101.735C76.4089 100.993 75.9111 100.87 75.4133 100.87C72.1778 101.117 68.9422 101.611 65.7067 101.735C64.5867 101.859 62.8445 101.982 62.72 100.622C62.5956 99.139 64.4622 99.5098 65.4578 99.2626C67.9467 98.7681 70.56 98.5209 73.5467 98.1501C71.0578 96.2958 68.6933 97.6556 66.4533 96.7903C67.8222 95.6778 69.3156 95.5542 70.1867 94.318C70.8089 93.5763 70.9333 92.711 70.1867 91.9693C69.5645 91.2276 68.8178 91.3513 68.1956 91.8457C67.6978 92.2166 67.2 92.5874 66.7022 93.0819C62.9689 96.2958 60.3556 96.5431 56.1244 94.1944C49.4044 90.486 44.5511 84.5525 38.9511 79.7315C38.5778 79.3606 38.3289 79.237 38.08 79.1134ZM103.04 33.376C103.164 32.7579 103.289 32.1398 103.289 31.5218C104.658 24.4757 107.644 18.0478 111.129 11.867C112.747 8.90029 114.613 5.93354 117.102 3.58486C117.6 3.21402 117.973 2.59594 118.72 2.84317C119.342 2.84317 119.591 3.33763 119.467 3.70847C118.844 6.67523 119.093 10.2601 117.351 12.7323C112.622 19.4075 109.387 26.7008 106.276 34.2413C105.902 35.1066 105.529 35.8483 104.409 35.4774C103.413 34.983 102.916 34.4885 103.04 33.376ZM130.293 123.615C130.791 122.131 131.413 120.772 131.538 119.288C131.787 116.816 132.658 117.063 134.649 117.681C142.613 120.277 150.578 123.12 159.04 123.862C160.036 123.986 161.031 124.356 162.4 124.727C157.049 126.211 142.364 125.593 130.293 123.615ZM116.978 17.9242C116.853 19.6548 116.604 21.3854 116.853 22.9924C117.6 27.1953 117.351 30.9037 113.493 33.7468C112.124 34.7357 111.502 36.4664 110.382 37.8261C109.884 38.3206 109.884 39.804 108.64 39.0623C107.893 38.6914 107.271 37.9497 107.644 36.8372C110.009 30.2856 112.373 23.6104 116.978 17.9242ZM77.5289 123.12C77.28 122.997 77.1556 122.997 76.9067 122.749C73.4222 119.535 69.9378 116.445 66.5778 113.107C65.3333 111.871 66.8267 110.635 67.4489 109.77C68.1956 108.657 68.8178 110.141 69.3156 110.512C71.68 112.366 74.4178 113.973 77.1556 114.714C80.2667 115.703 80.3911 117.187 79.1467 119.535C78.7733 120.277 78.6489 121.142 78.2756 122.008C78.2756 122.626 78.1511 123.12 77.5289 123.12ZM107.147 70.2132C111.876 71.0785 115.36 72.9327 118.596 75.2814C120.089 76.3939 118.844 81.0912 117.102 81.8329C116.604 82.0802 116.356 81.9565 115.982 81.5857C113.618 78.1245 109.884 76.6411 106.4 74.7869C105.529 74.2924 104.782 73.6744 105.653 72.5618C106.276 71.5729 105.902 69.8423 107.147 70.2132ZM120.462 74.0452C117.351 70.9548 113.618 69.4715 109.636 68.6062C108.889 68.4826 107.396 69.3478 107.52 67.7409C107.52 66.6283 108.018 65.6394 109.636 65.3922C112.373 65.0213 114.987 65.2686 117.6 66.0103C123.2 67.6172 123.449 68.3589 120.462 74.0452ZM120.089 57.4808C116.978 57.11 114.364 58.717 111.502 59.3351C110.756 59.4587 109.76 60.4476 109.138 59.4587C108.516 58.4698 109.138 57.11 109.884 56.6155C112.996 54.8849 115.484 52.1654 119.093 51.3001C120.089 51.0529 121.458 50.064 122.08 51.0529C122.951 52.7835 123.076 55.0085 122.702 56.9864C122.453 58.717 120.96 57.2336 120.089 57.4808ZM117.973 31.2745C120.338 37.9497 120.213 38.815 115.609 42.2762C113.618 43.7596 112.622 46.3555 109.636 47.8389C109.262 40.422 114.489 36.59 117.973 31.2745ZM101.671 79.8551C102.293 78.7426 102.916 77.8773 103.413 76.8883C103.787 76.2703 104.284 75.8994 105.031 76.3939C108.018 78.4953 111.502 79.7315 114.116 82.451C115.609 84.058 114.613 85.1705 113.244 85.665C112 86.1594 111.253 89.3734 109.387 86.5303C107.396 83.6871 105.031 81.4621 101.671 79.8551ZM74.1689 129.548C73.92 129.425 73.6711 129.425 73.5467 129.301C69.8133 125.716 66.4533 121.884 63.4667 117.558C62.8444 116.692 63.7156 115.951 64.2133 115.333C64.7111 114.714 65.2089 114.714 65.8311 115.333C69.1911 118.546 72.4267 121.76 75.9111 124.851C76.9067 125.84 76.4089 126.581 75.9111 127.323C75.4133 128.188 75.2889 129.301 74.1689 129.548ZM62.8444 118.423C64.7111 122.255 67.2 125.469 69.9378 128.436C73.0489 131.773 73.0489 131.773 69.3156 134.864C67.2 132.02 64.96 129.301 62.9689 126.334C61.3511 123.986 59.9822 121.39 62.8444 118.423ZM110.133 54.3905C109.636 52.7835 109.387 51.4237 110.009 50.9293C113.369 48.5806 115.236 44.6249 118.347 42.029C119.342 41.1637 120.089 41.1637 120.338 42.5235C120.587 44.2541 121.084 45.8611 121.831 47.4681C122.204 48.2097 121.956 48.9514 120.96 49.0751C117.102 49.8167 113.493 51.5473 110.133 54.3905ZM51.1467 131.65C51.2711 129.919 53.0133 129.301 54.1333 128.93C56.1245 128.188 55.2533 130.29 55.6267 131.032C56.6222 133.504 57.7422 135.976 59.1111 138.325C59.4845 138.943 60.6044 139.808 59.1111 140.303C57.8667 140.797 56.2489 142.651 55.1289 141.044C53.2622 138.201 52.0178 135.111 51.1467 131.65ZM59.7333 124.356C60.6044 128.683 63.84 131.279 65.9556 134.616C66.4533 135.358 68.4444 136.223 66.2044 137.212C64.7111 137.83 63.2178 139.561 61.9733 136.965C60.7289 134.246 59.1111 131.773 57.9911 128.806C57.2444 126.829 57.6178 125.593 59.7333 124.356ZM108.64 63.0435C108.391 62.3018 108.64 61.6837 109.262 61.6837C112.249 61.4365 115.111 59.9531 117.973 59.4587C123.076 58.4698 123.449 58.717 122.702 63.7852C122.702 64.0324 122.702 64.156 122.702 64.4033C122.578 65.6394 122.204 65.763 121.084 65.2686C117.227 63.538 113.12 62.4254 108.64 63.0435ZM149.458 139.808C148.089 140.673 147.342 140.179 146.72 139.808C140.622 135.976 134.649 132.02 128.676 128.065C127.431 127.2 128.551 126.581 128.8 125.963C129.298 124.851 129.547 125.469 130.418 125.84C137.636 129.177 141.742 136.594 149.458 139.808ZM16.9245 138.201C19.4133 134.493 24.1422 132.639 29.8667 132.762C28.2489 134.246 27.3778 136.1 26.5067 137.954C26.0089 139.067 25.5111 140.055 23.7689 139.561C21.6533 139.067 19.4133 138.696 16.9245 138.201ZM96.6933 84.7997C97.3156 84.058 98.0622 83.1927 98.8089 82.451C99.5556 81.5857 100.178 82.2038 100.8 82.6982C103.04 84.1816 105.156 85.9122 106.773 88.1373C107.147 88.7554 108.018 89.3734 107.271 90.1151C106.649 90.7332 105.156 91.5985 104.782 91.3513C102.169 89.3734 99.8045 87.0247 96.9422 85.2941C96.8178 85.1705 96.6933 84.9233 96.6933 84.7997ZM28.2489 140.674C29.2444 138.572 30.1156 136.471 31.1111 134.493C31.4845 133.875 31.7333 132.515 32.8533 133.257C33.7245 133.751 35.2178 133.627 35.3422 135.358C35.3422 137.583 35.7156 139.685 35.9644 142.033C33.3511 141.539 30.9867 141.168 28.2489 140.674ZM45.2978 133.998C45.7956 132.515 47.1645 132.639 48.2845 132.144C49.1556 131.773 49.7778 131.897 49.7778 133.009C49.7778 135.729 51.1467 137.954 52.0178 140.303C52.2667 141.044 53.0133 141.91 51.6444 142.28C50.7733 142.528 49.5289 143.146 49.0311 142.033C47.6622 139.561 46.5422 136.841 45.2978 133.998ZM87.7333 89.497C95.5733 85.9122 97.3156 88.1373 102.169 92.5874C96.6933 93.9472 92.5867 91.104 87.7333 89.497ZM40.9422 134.493C42.3111 134.122 43.0578 134.122 43.0578 135.853C43.0578 137.707 43.5556 139.437 44.1778 141.168C44.9244 142.899 44.1778 143.146 42.56 142.899C38.7022 142.528 39.8222 139.19 38.9511 137.089C38.3289 135.234 38.7022 134.122 40.9422 134.493ZM6.22223 136.223C9.20889 135.853 12.1956 135.482 15.3067 135.111C13.9378 138.572 13.1911 138.572 6.22223 136.223ZM85.2444 113.107C84.3733 113.602 83.5022 114.962 81.76 113.478C83.3778 113.231 84.3733 113.231 85.2444 113.107Z" fill="#131313"/>
</g>
<defs>
<clipPath id="clip0">
<rect width="168" height="145" fill="white" transform="matrix(-1 0 0 1 168 0)"/>
</clipPath>
</defs>
</svg>
